# xmcd
#
# Track frame offsets: 
#        150
#        14807
#        33795
#        46310
#        64180
#        75132
#        91522
#        113535
#        126705
#        151900
#
# Disc length: 2235 seconds
#
# Revision: 0
# Processed by: cddbd v1.5.1PL0 Copyright (c) Steve Scherf et al.
# Submitted via: ExactAudioCopy v0.95a5
#
DISCID=6e08b90a
DTITLE=Cross-Tie Walkers - Cross-Tie Walkers
DYEAR=1999
DGENRE=R&B
TTITLE0=Hanky Panky Babe
TTITLE1=Lonesome Cradle
TTITLE2=Triple Trouble
TTITLE3=Red Headed and Full Blooded Woman
TTITLE4=Friday Night Fun
TTITLE5=How Long
TTITLE6=Swamp Moan
TTITLE7=I Ain't Got No Work
TTITLE8=I'm Not The Man I Used To Be
TTITLE9=Why Can't It Be Easier
EXTD=
EXTT0=
EXTT1=
EXTT2=
EXTT3=
EXTT4=
EXTT5=
EXTT6=
EXTT7=
EXTT8=
EXTT9=
PLAYORDER=
